<?xml version="1.0" standalone="no"?>
 <!DOCTYPE svg PUBLIC "-//W3C//DTD SVG 1.1//EN" 
 "http://www.w3.org/Graphics/SVG/1.1/DTD/svg11.dtd"> 
<svg
  xmlns:svg="http://www.w3.org/2000/svg"
  xmlns="http://www.w3.org/2000/svg"
  xmlns:xlink="http://www.w3.org/1999/xlink"
  version="1.1"
  width="297.0022mm" height="210.0072mm" viewBox="0.0000 0.0000 297.0022 210.0072">
<title>SVG Image created as cargador-cargador-B_Cu.svg date 2023/05/29 14:25:48 </title>
  <desc>Image generated by PCBNEW </desc>
<g style="fill:#000000; fill-opacity:1.0000;stroke:#000000; stroke-opacity:1.0000;
stroke-linecap:round; stroke-linejoin:round;"
 transform="translate(0 0) scale(1 1)">
</g>
<g style="fill:#000000; fill-opacity:0.0; 
stroke:#000000; stroke-width:0.0000; stroke-opacity:1; 
stroke-linecap:round; stroke-linejoin:round;">
<g >
</g>
<g style="fill:#000000; fill-opacity:0.0; 
stroke:#000000; stroke-width:0.0000; stroke-opacity:1; 
stroke-linecap:round; stroke-linejoin:round;">
</g>
<g style="fill:#000000; fill-opacity:1.0000; 
stroke:#000000; stroke-width:0.0000; stroke-opacity:1; 
stroke-linecap:round; stroke-linejoin:round;">
<path style="fill:#000000; fill-opacity:1.0000; 
stroke:#000000; stroke-width:0.0000; stroke-opacity:1; 
stroke-linecap:round; stroke-linejoin:round;fill-rule:evenodd;"
d="M 75.7320,47.8002
75.7320,49.9998
74.2080,49.9998
74.2080,47.8002
Z" /> 
</g>
<g style="fill:#000000; fill-opacity:1.0000; 
stroke:#000000; stroke-width:1.5240; stroke-opacity:1; 
stroke-linecap:round; stroke-linejoin:round;">
</g>
<g style="fill:#000000; fill-opacity:0.0; 
stroke:#000000; stroke-width:1.5240; stroke-opacity:1; 
stroke-linecap:round; stroke-linejoin:round;">
<path d="M72.4300 49.2378
L72.4300 48.5622
" />
</g>
<g >
</g>
<g style="fill:#000000; fill-opacity:0.0; 
stroke:#000000; stroke-width:1.5240; stroke-opacity:1; 
stroke-linecap:round; stroke-linejoin:round;">
</g>
<g style="fill:#000000; fill-opacity:0.0; 
stroke:#000000; stroke-width:0.0000; stroke-opacity:1; 
stroke-linecap:round; stroke-linejoin:round;">
</g>
<g style="fill:#000000; fill-opacity:1.0000; 
stroke:#000000; stroke-width:0.0000; stroke-opacity:1; 
stroke-linecap:round; stroke-linejoin:round;">
<path style="fill:#000000; fill-opacity:1.0000; 
stroke:#000000; stroke-width:0.0000; stroke-opacity:1; 
stroke-linecap:round; stroke-linejoin:round;fill-rule:evenodd;"
d="M 67.0400,46.8500
67.0400,42.3500
69.0400,42.3500
69.0400,46.8500
Z" /> 
</g>
<g style="fill:#000000; fill-opacity:1.0000; 
stroke:#000000; stroke-width:2.0000; stroke-opacity:1; 
stroke-linecap:round; stroke-linejoin:round;">
</g>
<g style="fill:#000000; fill-opacity:0.0; 
stroke:#000000; stroke-width:2.0000; stroke-opacity:1; 
stroke-linecap:round; stroke-linejoin:round;">
<path d="M61.8400 43.6000
L61.8400 45.6000
" />
<path d="M63.8400 49.3000
L65.8400 49.3000
" />
</g>
<g >
</g>
<g style="fill:#000000; fill-opacity:0.0; 
stroke:#000000; stroke-width:2.0000; stroke-opacity:1; 
stroke-linecap:round; stroke-linejoin:round;">
</g>
<g style="fill:#000000; fill-opacity:0.0; 
stroke:#000000; stroke-width:0.0000; stroke-opacity:1; 
stroke-linecap:round; stroke-linejoin:round;">
</g>
<g style="fill:#000000; fill-opacity:1.0000; 
stroke:#000000; stroke-width:0.0000; stroke-opacity:1; 
stroke-linecap:round; stroke-linejoin:round;">
<path style="fill:#000000; fill-opacity:1.0000; 
stroke:#000000; stroke-width:0.0000; stroke-opacity:1; 
stroke-linecap:round; stroke-linejoin:round;fill-rule:evenodd;"
d="M 72.7380,45.4620
72.7380,43.9380
74.2620,43.9380
74.2620,45.4620
Z" /> 
<circle cx="73.5000" cy="42.7000" r="0.7620" /> 
</g>
<g style="fill:#000000; fill-opacity:1.0000; 
stroke:#000000; stroke-width:0.0212; stroke-opacity:1; 
stroke-linecap:round; stroke-linejoin:round;">
</g>
<g >
</g>
<g style="fill:#000000; fill-opacity:1.0000; 
stroke:#000000; stroke-width:0.0212; stroke-opacity:1; 
stroke-linecap:round; stroke-linejoin:round;">
</g>
<g style="fill:#000000; fill-opacity:1.0000; 
stroke:#000000; stroke-width:0.0000; stroke-opacity:1; 
stroke-linecap:round; stroke-linejoin:round;">
<circle cx="72.1400" cy="56.7000" r="1.0000" /> 
</g>
<g style="fill:#000000; fill-opacity:1.0000; 
stroke:#000000; stroke-width:0.0212; stroke-opacity:1; 
stroke-linecap:round; stroke-linejoin:round;">
</g>
<g style="fill:#000000; fill-opacity:1.0000; 
stroke:#000000; stroke-width:0.0000; stroke-opacity:1; 
stroke-linecap:round; stroke-linejoin:round;">
<circle cx="69.6000" cy="56.7000" r="1.0000" /> 
</g>
<g style="fill:#000000; fill-opacity:1.0000; 
stroke:#000000; stroke-width:0.0212; stroke-opacity:1; 
stroke-linecap:round; stroke-linejoin:round;">
</g>
<g style="fill:#000000; fill-opacity:1.0000; 
stroke:#000000; stroke-width:0.0000; stroke-opacity:1; 
stroke-linecap:round; stroke-linejoin:round;">
<circle cx="67.0600" cy="56.7000" r="1.0000" /> 
</g>
<g style="fill:#000000; fill-opacity:1.0000; 
stroke:#000000; stroke-width:0.0212; stroke-opacity:1; 
stroke-linecap:round; stroke-linejoin:round;">
</g>
<g >
</g>
<g style="fill:#000000; fill-opacity:1.0000; 
stroke:#000000; stroke-width:0.0212; stroke-opacity:1; 
stroke-linecap:round; stroke-linejoin:round;">
</g>
<g style="fill:#000000; fill-opacity:1.0000; 
stroke:#000000; stroke-width:0.0000; stroke-opacity:1; 
stroke-linecap:round; stroke-linejoin:round;">
<circle cx="78.3000" cy="41.8000" r="0.9995" /> 
</g>
<g style="fill:#000000; fill-opacity:1.0000; 
stroke:#000000; stroke-width:0.0212; stroke-opacity:1; 
stroke-linecap:round; stroke-linejoin:round;">
</g>
<g >
</g>
<g style="fill:#000000; fill-opacity:1.0000; 
stroke:#000000; stroke-width:0.0212; stroke-opacity:1; 
stroke-linecap:round; stroke-linejoin:round;">
</g>
<g style="fill:#000000; fill-opacity:1.0000; 
stroke:#000000; stroke-width:0.0000; stroke-opacity:1; 
stroke-linecap:round; stroke-linejoin:round;">
<circle cx="78.5000" cy="47.5000" r="0.5004" /> 
</g>
<g style="fill:#000000; fill-opacity:1.0000; 
stroke:#000000; stroke-width:0.0212; stroke-opacity:1; 
stroke-linecap:round; stroke-linejoin:round;">
</g>
<g >
</g>
<g style="fill:#000000; fill-opacity:1.0000; 
stroke:#000000; stroke-width:0.0212; stroke-opacity:1; 
stroke-linecap:round; stroke-linejoin:round;">
</g>
<g style="fill:#000000; fill-opacity:1.0000; 
stroke:#000000; stroke-width:0.0000; stroke-opacity:1; 
stroke-linecap:round; stroke-linejoin:round;">
<circle cx="65.5300" cy="52.5000" r="0.9995" /> 
</g>
<g style="fill:#000000; fill-opacity:1.0000; 
stroke:#000000; stroke-width:0.0212; stroke-opacity:1; 
stroke-linecap:round; stroke-linejoin:round;">
</g>
<g style="fill:#000000; fill-opacity:1.0000; 
stroke:#000000; stroke-width:0.0000; stroke-opacity:1; 
stroke-linecap:round; stroke-linejoin:round;">
<circle cx="73.1500" cy="52.5000" r="0.9995" /> 
</g>
<g style="fill:#000000; fill-opacity:1.0000; 
stroke:#000000; stroke-width:0.0212; stroke-opacity:1; 
stroke-linecap:round; stroke-linejoin:round;">
</g>
<g >
</g>
<g style="fill:#000000; fill-opacity:1.0000; 
stroke:#000000; stroke-width:0.0212; stroke-opacity:1; 
stroke-linecap:round; stroke-linejoin:round;">
</g>
<g style="fill:#000000; fill-opacity:1.0000; 
stroke:#000000; stroke-width:0.0000; stroke-opacity:1; 
stroke-linecap:round; stroke-linejoin:round;">
<circle cx="78.5000" cy="57.9100" r="0.9995" /> 
</g>
<g style="fill:#000000; fill-opacity:1.0000; 
stroke:#000000; stroke-width:0.0212; stroke-opacity:1; 
stroke-linecap:round; stroke-linejoin:round;">
</g>
<g style="fill:#000000; fill-opacity:1.0000; 
stroke:#000000; stroke-width:0.0000; stroke-opacity:1; 
stroke-linecap:round; stroke-linejoin:round;">
<circle cx="78.5000" cy="50.2900" r="0.9995" /> 
</g>
<g style="fill:#000000; fill-opacity:1.0000; 
stroke:#000000; stroke-width:0.0212; stroke-opacity:1; 
stroke-linecap:round; stroke-linejoin:round;">
</g>
<g >
</g>
<g style="fill:#000000; fill-opacity:1.0000; 
stroke:#000000; stroke-width:0.0212; stroke-opacity:1; 
stroke-linecap:round; stroke-linejoin:round;">
</g>
<g style="fill:#000000; fill-opacity:1.0000; 
stroke:#000000; stroke-width:0.0000; stroke-opacity:1; 
stroke-linecap:round; stroke-linejoin:round;">
<circle cx="61.8000" cy="58.2000" r="0.9995" /> 
</g>
<g style="fill:#000000; fill-opacity:1.0000; 
stroke:#000000; stroke-width:0.0212; stroke-opacity:1; 
stroke-linecap:round; stroke-linejoin:round;">
</g>
<g >
</g>
<g >
</g>
<g style="fill:#000000; fill-opacity:1.0000; 
stroke:#000000; stroke-width:0.0212; stroke-opacity:1; 
stroke-linecap:round; stroke-linejoin:round;">
</g>
<g style="fill:#000000; fill-opacity:1.0000; 
stroke:#000000; stroke-width:1.0000; stroke-opacity:1; 
stroke-linecap:round; stroke-linejoin:round;">
</g>
<g style="fill:#000000; fill-opacity:0.0; 
stroke:#000000; stroke-width:1.0000; stroke-opacity:1; 
stroke-linecap:round; stroke-linejoin:round;">
<path d="M68.0400 44.6000
L68.0400 51.0400
" />
<path d="M72.1400 55.1400
L72.1400 56.7000
" />
<path d="M68.0400 51.0400
L72.1400 55.1400
" />
<path d="M73.5000 44.7000
L68.1400 44.7000
" />
<path d="M68.1400 44.7000
L68.0400 44.6000
" />
<path d="M64.8000 49.2600
L64.8400 49.3000
" />
</g>
<g style="fill:#000000; fill-opacity:0.0; 
stroke:#000000; stroke-width:0.7500; stroke-opacity:1; 
stroke-linecap:round; stroke-linejoin:round;">
<path d="M69.6000 57.7500
L70.3000 58.4500
" />
</g>
<g style="fill:#000000; fill-opacity:0.0; 
stroke:#000000; stroke-width:1.0000; stroke-opacity:1; 
stroke-linecap:round; stroke-linejoin:round;">
<path d="M74.9700 48.9000
L78.5000 48.9000
" />
</g>
<g style="fill:#000000; fill-opacity:0.0; 
stroke:#000000; stroke-width:0.7500; stroke-opacity:1; 
stroke-linecap:round; stroke-linejoin:round;">
<path d="M74.9700 56.8300
L74.9700 48.9000
" />
</g>
<g style="fill:#000000; fill-opacity:0.0; 
stroke:#000000; stroke-width:1.0000; stroke-opacity:1; 
stroke-linecap:round; stroke-linejoin:round;">
<path d="M78.5000 50.2900
L78.5000 47.5000
" />
</g>
<g style="fill:#000000; fill-opacity:0.0; 
stroke:#000000; stroke-width:0.7500; stroke-opacity:1; 
stroke-linecap:round; stroke-linejoin:round;">
<path d="M69.6000 56.7000
L69.6000 57.7500
" />
<path d="M70.3000 58.4500
L73.3500 58.4500
" />
<path d="M73.3500 58.4500
L74.9700 56.8300
" />
</g>
<g style="fill:#000000; fill-opacity:0.0; 
stroke:#000000; stroke-width:1.0000; stroke-opacity:1; 
stroke-linecap:round; stroke-linejoin:round;">
<path d="M78.5000 48.9000
L78.5000 50.2900
" />
<path d="M73.1500 52.5000
L73.1500 51.1500
" />
<path d="M72.4300 50.4300
L72.4300 48.9000
" />
<path d="M73.1500 51.1500
L72.4300 50.4300
" />
</g>
<g style="fill:#000000; fill-opacity:0.0; 
stroke:#000000; stroke-width:0.7500; stroke-opacity:1; 
stroke-linecap:round; stroke-linejoin:round;">
<path d="M67.0600 58.7600
L67.8000 59.5000
" />
</g>
<g style="fill:#000000; fill-opacity:0.0; 
stroke:#000000; stroke-width:1.0000; stroke-opacity:1; 
stroke-linecap:round; stroke-linejoin:round;">
<path d="M65.9000 56.7000
L67.0600 56.7000
" />
</g>
<g style="fill:#000000; fill-opacity:0.0; 
stroke:#000000; stroke-width:0.7500; stroke-opacity:1; 
stroke-linecap:round; stroke-linejoin:round;">
<path d="M67.8000 59.5000
L74.6000 59.5000
" />
</g>
<g style="fill:#000000; fill-opacity:0.0; 
stroke:#000000; stroke-width:1.0000; stroke-opacity:1; 
stroke-linecap:round; stroke-linejoin:round;">
<path d="M65.5300 52.5000
L65.5300 56.3300
" />
</g>
<g style="fill:#000000; fill-opacity:0.0; 
stroke:#000000; stroke-width:0.7500; stroke-opacity:1; 
stroke-linecap:round; stroke-linejoin:round;">
<path d="M76.1900 57.9100
L78.5000 57.9100
" />
</g>
<g style="fill:#000000; fill-opacity:0.0; 
stroke:#000000; stroke-width:1.0000; stroke-opacity:1; 
stroke-linecap:round; stroke-linejoin:round;">
<path d="M65.5300 56.3300
L65.9000 56.7000
" />
</g>
<g style="fill:#000000; fill-opacity:0.0; 
stroke:#000000; stroke-width:0.7500; stroke-opacity:1; 
stroke-linecap:round; stroke-linejoin:round;">
<path d="M67.0600 56.7000
L67.0600 58.7600
" />
<path d="M74.6000 59.5000
L76.1900 57.9100
" />
</g>
<g >
</g>
<g style="fill:#000000; fill-opacity:0.0; 
stroke:#000000; stroke-width:0.7500; stroke-opacity:1; 
stroke-linecap:round; stroke-linejoin:round;">
<g >
</g>
<g style="fill:#000000; fill-opacity:1.0000; 
stroke:#000000; stroke-width:0.0000; stroke-opacity:1; 
stroke-linecap:round; stroke-linejoin:round;">
<path style="fill:#000000; fill-opacity:1.0000; 
stroke:#000000; stroke-width:0.0000; stroke-opacity:1; 
stroke-linecap:round; stroke-linejoin:round;fill-rule:evenodd;"
d="M 76.5987,40.0200
76.7260,40.0770
76.8326,40.1670
76.9101,40.2830
76.9525,40.4159
76.9564,40.5554
76.9216,40.6905
76.8507,40.8106
76.8500,40.8114
76.8265,40.8521
76.8067,40.8837
76.7802,40.9226
76.7598,40.9649
76.7424,40.9979
76.7189,41.0386
76.7017,41.0823
76.6868,41.1165
76.6664,41.1589
76.6526,41.2038
76.6402,41.2390
76.6231,41.2827
76.6126,41.3286
76.6030,41.3646
76.5891,41.4095
76.5821,41.4560
76.5752,41.4926
76.5647,41.5384
76.5612,41.5853
76.5570,41.6224
76.5500,41.6689
76.5500,41.7158
76.5486,41.7531
76.5451,41.8000
76.5486,41.8469
76.5500,41.8842
76.5500,41.9311
76.5570,41.9776
76.5612,42.0147
76.5647,42.0615
76.5752,42.1074
76.5821,42.1440
76.5891,42.1905
76.6030,42.2354
76.6126,42.2714
76.6231,42.3173
76.6402,42.3610
76.6526,42.3962
76.6664,42.4411
76.6868,42.4835
76.7017,42.5177
76.7189,42.5614
76.7424,42.6021
76.7598,42.6351
76.7802,42.6774
76.7802,42.6774
76.7802,42.6774
76.8067,42.7163
76.8265,42.7479
76.8500,42.7886
76.8793,42.8253
76.9015,42.8553
76.9280,42.8942
76.9599,42.9286
76.9843,42.9569
77.0136,42.9936
77.0480,43.0256
77.0744,43.0520
77.1064,43.0864
77.1064,43.0864
77.1431,43.1157
77.1714,43.1401
77.2058,43.1720
77.2447,43.1985
77.2747,43.2207
77.3114,43.2500
77.3393,43.2660
77.3521,43.2734
77.3521,43.2735
77.3837,43.2933
77.3837,43.2933
77.4226,43.3198
77.4649,43.3402
77.4979,43.3576
77.5386,43.3811
77.5823,43.3983
77.6165,43.4132
77.6589,43.4336
77.7038,43.4474
77.7390,43.4598
77.7827,43.4769
77.8286,43.4874
77.8646,43.4970
77.9095,43.5109
77.9560,43.5179
77.9926,43.5248
78.0384,43.5353
78.0516,43.5363
78.0853,43.5388
78.1224,43.5430
78.1689,43.5500
78.2345,43.5500
78.4311,43.5500
78.4776,43.5430
78.5147,43.5388
78.5616,43.5353
78.6074,43.5248
78.6440,43.5179
78.6905,43.5109
78.7354,43.4970
78.7714,43.4874
78.7997,43.4809
78.8173,43.4769
78.8610,43.4598
78.8962,43.4474
78.9411,43.4336
78.9835,43.4132
79.0177,43.3983
79.0614,43.3811
79.1021,43.3576
79.1351,43.3402
79.1774,43.3198
79.2056,43.3006
79.2163,43.2933
79.2479,43.2734
79.2505,43.2720
79.2511,43.2716
79.3714,43.2218
79.5006,43.2048
79.6297,43.2218
79.7500,43.2717
79.8534,43.3510
79.9327,43.4543
79.9825,43.5747
79.9995,43.7038
79.9995,46.0593
79.9823,46.1894
79.9317,46.3105
79.8514,46.4142
79.7468,46.4934
79.6251,46.5425
79.4949,46.5583
79.3650,46.5396
79.2446,46.4877
79.1959,46.4586
79.1656,46.4390
79.1177,46.4055
79.1071,46.3995
79.1025,46.3976
79.0464,46.3690
79.0029,46.3527
78.9673,46.3377
78.9217,46.3165
78.8974,46.3080
78.8960,46.3077
78.8356,46.2896
78.7942,46.2821
78.7542,46.2731
78.7454,46.2707
78.7131,46.2621
78.6722,46.2557
78.6141,46.2491
78.6126,46.2491
78.5764,46.2491
78.5329,46.2472
78.5280,46.2468
78.4979,46.2442
78.4472,46.2452
78.3812,46.2542
78.3577,46.2568
78.2767,46.2639
78.2253,46.2744
78.1641,46.2943
78.1390,46.3017
78.0629,46.3221
78.0610,46.3230
78.0109,46.3431
77.9574,46.3719
77.9319,46.3847
77.8622,46.4172
77.8579,46.4203
77.8122,46.4491
77.7677,46.4845
77.7428,46.5031
77.6813,46.5462
77.6754,46.5524
77.6356,46.5888
77.6008,46.6286
77.5778,46.6532
77.5259,46.7051
77.5195,46.7148
77.4868,46.7578
77.4617,46.7998
77.4421,46.8301
77.4044,46.8838
77.3985,46.8944
77.3950,46.9025
77.3705,46.9506
77.3547,46.9927
77.3398,47.0282
77.3157,47.0799
77.3073,47.1043
77.3061,47.1094
77.2906,47.1611
77.2833,47.2013
77.2743,47.2413
77.2693,47.2601
77.2202,47.3790
77.1424,47.4815
77.0410,47.5606
76.9227,47.6112
76.7953,47.6299
76.6675,47.6154
76.5476,47.5686
76.4437,47.4928
76.3626,47.3929
76.3247,47.3315
76.2007,47.2075
76.2007,47.2075
76.0513,47.1154
75.8848,47.0602
75.7820,47.0497
74.8771,47.0497
74.7493,47.0331
74.6301,46.9843
74.5273,46.9066
74.4479,46.8052
74.3970,46.6868
74.3782,46.5594
74.3926,46.4314
74.4393,46.3113
74.5151,46.2072
74.6151,46.1260
74.7307,46.0547
74.8547,45.9307
74.9468,45.7813
75.0020,45.6148
75.0125,45.5120
75.0125,43.8880
75.0020,43.7852
74.9468,43.6187
74.9468,43.6187
74.9346,43.5817
74.9171,43.5441
74.8940,43.4287
74.8984,43.3112
74.9303,43.1979
74.9424,43.1687
74.9980,42.9373
75.0167,42.7000
74.9980,42.4627
74.9424,42.2313
74.8643,42.0428
73.8658,43.0413
73.7624,43.1206
73.6421,43.1705
73.5129,43.1875
73.4871,43.1875
73.3579,43.1705
73.2376,43.1206
73.1342,43.0413
72.1357,42.0428
72.1357,42.0428
72.0576,42.2313
72.0020,42.4627
71.9833,42.7000
72.0000,42.9113
71.9919,43.0478
71.9471,43.1770
71.8689,43.2892
71.7632,43.3760
71.6379,43.4308
71.5025,43.4495
70.2895,43.4495
70.1603,43.4325
70.0400,43.3826
69.9367,43.3033
69.8574,43.2000
69.8075,43.0797
69.7905,42.9505
69.7905,42.3000
69.7905,42.3000
69.7800,42.1972
69.7248,42.0307
69.6327,41.8813
69.5087,41.7573
69.5087,41.7573
69.3593,41.6652
69.1928,41.6100
69.0900,41.5995
66.9900,41.5995
66.8872,41.6100
66.7207,41.6652
66.5713,41.7573
66.4473,41.8813
66.3552,42.0307
66.3000,42.1972
66.2895,42.3000
66.2895,46.9000
66.2997,47.0003
66.2945,47.1388
66.2514,47.2706
66.1737,47.3854
66.0673,47.4744
65.9406,47.5307
65.8033,47.5500
65.3400,47.5500
65.3400,49.3010
65.3230,49.4302
65.2731,49.5505
65.1938,49.6538
65.0905,49.7331
64.9702,49.7830
64.8410,49.8000
62.1629,49.8000
62.2064,49.9411
62.3202,50.1775
62.4680,50.3942
62.6464,50.5864
62.8514,50.7500
63.0786,50.8811
63.3227,50.9769
63.6064,51.0417
63.7215,51.0833
63.8229,51.1517
63.9047,51.2427
63.9618,51.3509
63.9910,51.4697
63.9903,51.5920
63.9599,51.7105
63.8531,51.9827
63.7947,52.2384
63.7751,52.5000
63.7947,52.7616
63.8531,53.0173
63.9272,53.2062
63.9489,53.2614
64.0800,53.4886
64.1706,53.6022
64.2301,53.6968
64.2670,53.8023
64.2795,53.9133
64.2795,56.2317
64.2764,56.2876
64.2748,56.3018
64.2784,56.3553
64.2794,56.3845
64.2828,56.4225
64.2837,56.4337
64.2909,56.5405
64.3193,56.6438
64.3222,56.6546
64.3484,56.7584
64.3545,56.7712
64.3948,56.8549
64.3996,56.8650
64.4438,56.9625
64.5068,57.0492
64.5132,57.0582
64.5462,57.1058
64.5742,57.1463
64.5845,57.1561
64.5845,57.1561
64.6039,57.1747
64.6516,57.2203
64.6597,57.2281
64.9463,57.5148
64.9836,57.5565
64.9855,57.5589
64.9925,57.5677
65.0329,57.6030
65.0542,57.6229
65.0835,57.6474
65.0921,57.6546
65.1727,57.7251
65.2658,57.7779
65.2754,57.7835
65.3189,57.8095
65.3674,57.8385
65.4685,57.8738
65.4789,57.8776
65.5660,57.9103
65.5660,57.9103
65.6080,57.9261
65.6066,57.9299
65.6561,57.9462
65.7705,58.0240
65.8592,58.1302
65.9153,58.2567
65.9345,58.3938
65.9345,58.6244
65.9317,58.6574
65.9344,58.7675
65.9345,58.7794
65.9345,58.8163
65.9362,58.8448
65.9374,58.8942
65.9397,58.9047
65.9488,58.9633
65.9498,58.9740
65.9637,59.0214
65.9726,59.0559
65.9831,59.1043
65.9873,59.1141
66.0074,59.1699
66.0104,59.1802
66.0147,59.1886
66.0330,59.2242
66.0482,59.2564
66.0592,59.2820
66.0644,59.2942
66.0686,59.3041
66.1052,59.4396
66.1026,59.5799
66.0610,59.7139
65.9837,59.8311
65.8768,59.9221
65.7489,59.9798
65.6099,59.9995
63.6395,59.9995
63.5013,59.9800
63.3740,59.9230
63.2674,59.8330
63.1899,59.7170
63.1475,59.5841
63.1436,59.4446
63.1784,59.3095
63.2493,59.1894
63.2500,59.1886
63.2735,59.1479
63.2933,59.1163
63.3019,59.1036
63.3198,59.0774
63.3402,59.0351
63.3576,59.0021
63.3811,58.9614
63.3983,58.9177
63.4132,58.8835
63.4336,58.8411
63.4336,58.8411
63.4336,58.8411
63.4474,58.7962
63.4598,58.7610
63.4769,58.7173
63.4874,58.6714
63.4971,58.6354
63.5109,58.5905
63.5179,58.5440
63.5248,58.5074
63.5353,58.4616
63.5388,58.4147
63.5430,58.3776
63.5500,58.3311
63.5500,58.2842
63.5514,58.2469
63.5526,58.2300
63.5549,58.2000
63.5514,58.1531
63.5500,58.1158
63.5500,58.0689
63.5430,58.0224
63.5388,57.9853
63.5353,57.9384
63.5333,57.9299
63.5248,57.8926
63.5179,57.8560
63.5109,57.8095
63.5109,57.8095
63.4970,57.7646
63.4874,57.7286
63.4769,57.6827
63.4598,57.6390
63.4474,57.6038
63.4336,57.5589
63.4132,57.5165
63.3983,57.4823
63.3811,57.4386
63.3811,57.4386
63.3576,57.3979
63.3402,57.3649
63.3198,57.3226
63.2933,57.2837
63.2735,57.2521
63.2500,57.2114
63.2207,57.1747
63.1985,57.1447
63.1720,57.1058
63.1401,57.0714
63.1157,57.0431
63.0864,57.0064
63.0864,57.0064
63.0520,56.9744
63.0256,56.9480
62.9936,56.9136
62.9569,56.8843
62.9286,56.8599
62.8942,56.8280
62.8553,56.8015
62.8253,56.7793
62.7886,56.7500
62.7479,56.7265
62.7163,56.7067
62.6774,56.6802
62.6351,56.6598
62.6021,56.6424
62.5614,56.6189
62.5614,56.6189
62.5614,56.6189
62.5177,56.6017
62.4835,56.5868
62.4411,56.5664
62.3962,56.5526
62.3610,56.5402
62.3173,56.5231
62.2714,56.5126
62.2354,56.5030
62.1905,56.4891
62.1440,56.4821
62.1074,56.4752
62.0615,56.4647
62.0147,56.4612
61.9776,56.4570
61.9623,56.4547
61.9311,56.4500
61.6689,56.4500
61.6689,56.4500
61.6224,56.4570
61.5853,56.4612
61.5384,56.4647
61.4926,56.4752
61.4560,56.4821
61.4095,56.4891
61.3646,56.5030
61.3286,56.5126
61.2827,56.5231
61.2390,56.5402
61.2038,56.5526
61.1589,56.5664
61.1165,56.5868
61.0823,56.6017
61.0386,56.6189
60.9979,56.6424
60.9649,56.6598
60.9226,56.6802
60.8837,56.7067
60.8521,56.7265
60.8114,56.7500
60.8106,56.7507
60.6905,56.8216
60.5554,56.8564
60.4159,56.8525
60.2830,56.8101
60.1670,56.7326
60.0770,56.6260
60.0200,56.4987
60.0005,56.3605
60.0005,48.8000
62.1629,48.8000
64.3400,48.8000
64.3400,47.5500
63.7745,47.5500
63.5842,47.5643
63.4562,47.5573
63.3342,47.5180
63.2262,47.4489
63.1394,47.3546
63.0795,47.2412
63.0504,47.1163
63.0542,46.9882
63.0904,46.8652
63.1568,46.7555
63.2900,46.5886
63.4211,46.3614
63.5169,46.1173
63.5753,45.8616
63.5900,45.6655
63.5900,45.1000
62.3400,45.1000
62.3400,47.2771
62.4781,47.3791
62.5777,47.4768
62.6463,47.5983
62.6786,47.7340
62.6721,47.8733
62.6273,48.0055
62.5476,48.1200
62.4680,48.2058
62.3202,48.4225
62.2064,48.6589
62.1629,48.8000
60.0005,48.8000
60.0005,47.4080
60.0187,47.2744
60.0721,47.1505
60.1567,47.0454
60.2663,46.9669
60.3930,46.9205
60.5275,46.9098
60.6599,46.9355
60.7806,46.9957
60.9625,47.1198
61.1989,47.2336
61.3400,47.2771
61.3400,41.9229
62.3400,41.9229
62.3400,44.1000
63.5900,44.1000
63.5900,43.5345
63.5753,43.3384
63.5169,43.0827
63.4211,42.8386
63.2900,42.6114
63.1264,42.4064
62.9342,42.2280
62.7175,42.0802
62.4811,41.9664
62.3400,41.9229
61.3400,41.9229
61.1989,41.9664
60.9625,42.0802
60.7806,42.2043
60.6599,42.2645
60.5275,42.2902
60.3930,42.2795
60.2663,42.2331
60.1567,42.1546
60.0721,42.0495
60.0187,41.9256
60.0005,41.7920
60.0005,41.3357
72.8428,41.3357
73.5000,41.9929
74.1572,41.3357
73.9687,41.2576
73.7373,41.2020
73.5000,41.1833
73.2627,41.2020
73.0313,41.2576
72.8428,41.3357
72.8428,41.3357
60.0005,41.3357
60.0005,40.4995
60.0175,40.3703
60.0674,40.2500
60.1467,40.1467
60.2500,40.0674
60.3703,40.0175
60.4995,40.0005
76.4605,40.0005
Z" /> 
</g>
</g>
</g>
<g style="fill:#FFFFFF; fill-opacity:1.0000; 
stroke:#FFFFFF; stroke-width:0.0000; stroke-opacity:1; 
stroke-linecap:round; stroke-linejoin:round;">
<circle cx="74.9700" cy="48.9000" r="0.5004" /> 
</g>
<g style="fill:#FFFFFF; fill-opacity:1.0000; 
stroke:#FFFFFF; stroke-width:0.0212; stroke-opacity:1; 
stroke-linecap:round; stroke-linejoin:round;">
</g>
<g style="fill:#FFFFFF; fill-opacity:1.0000; 
stroke:#FFFFFF; stroke-width:0.0000; stroke-opacity:1; 
stroke-linecap:round; stroke-linejoin:round;">
<circle cx="72.4300" cy="48.9000" r="0.5004" /> 
</g>
<g style="fill:#FFFFFF; fill-opacity:1.0000; 
stroke:#FFFFFF; stroke-width:0.0212; stroke-opacity:1; 
stroke-linecap:round; stroke-linejoin:round;">
</g>
<g style="fill:#FFFFFF; fill-opacity:1.0000; 
stroke:#FFFFFF; stroke-width:1.0000; stroke-opacity:1; 
stroke-linecap:round; stroke-linejoin:round;">
</g>
<g style="fill:#FFFFFF; fill-opacity:0.0; 
stroke:#FFFFFF; stroke-width:1.0000; stroke-opacity:1; 
stroke-linecap:round; stroke-linejoin:round;">
<path d="M68.0400 43.3500
L68.0400 45.8500
" />
<path d="M61.8400 43.6000
L61.8400 45.6000
" />
<path d="M63.8400 49.3000
L65.8400 49.3000
" />
</g>
<g style="fill:#FFFFFF; fill-opacity:1.0000; 
stroke:#FFFFFF; stroke-width:0.0000; stroke-opacity:1; 
stroke-linecap:round; stroke-linejoin:round;">
<circle cx="73.5000" cy="44.7000" r="0.3250" /> 
</g>
<g style="fill:#FFFFFF; fill-opacity:1.0000; 
stroke:#FFFFFF; stroke-width:0.0212; stroke-opacity:1; 
stroke-linecap:round; stroke-linejoin:round;">
</g>
<g style="fill:#FFFFFF; fill-opacity:1.0000; 
stroke:#FFFFFF; stroke-width:0.0000; stroke-opacity:1; 
stroke-linecap:round; stroke-linejoin:round;">
<circle cx="73.5000" cy="42.7000" r="0.3250" /> 
</g>
<g style="fill:#FFFFFF; fill-opacity:1.0000; 
stroke:#FFFFFF; stroke-width:0.0212; stroke-opacity:1; 
stroke-linecap:round; stroke-linejoin:round;">
</g>
<g style="fill:#FFFFFF; fill-opacity:1.0000; 
stroke:#FFFFFF; stroke-width:0.0000; stroke-opacity:1; 
stroke-linecap:round; stroke-linejoin:round;">
<circle cx="72.1400" cy="56.7000" r="0.6248" /> 
</g>
<g style="fill:#FFFFFF; fill-opacity:1.0000; 
stroke:#FFFFFF; stroke-width:0.0212; stroke-opacity:1; 
stroke-linecap:round; stroke-linejoin:round;">
</g>
<g style="fill:#FFFFFF; fill-opacity:1.0000; 
stroke:#FFFFFF; stroke-width:0.0000; stroke-opacity:1; 
stroke-linecap:round; stroke-linejoin:round;">
<circle cx="69.6000" cy="56.7000" r="0.6248" /> 
</g>
<g style="fill:#FFFFFF; fill-opacity:1.0000; 
stroke:#FFFFFF; stroke-width:0.0212; stroke-opacity:1; 
stroke-linecap:round; stroke-linejoin:round;">
</g>
<g style="fill:#FFFFFF; fill-opacity:1.0000; 
stroke:#FFFFFF; stroke-width:0.0000; stroke-opacity:1; 
stroke-linecap:round; stroke-linejoin:round;">
<circle cx="67.0600" cy="56.7000" r="0.6248" /> 
</g>
<g style="fill:#FFFFFF; fill-opacity:1.0000; 
stroke:#FFFFFF; stroke-width:0.0212; stroke-opacity:1; 
stroke-linecap:round; stroke-linejoin:round;">
</g>
<g style="fill:#FFFFFF; fill-opacity:1.0000; 
stroke:#FFFFFF; stroke-width:0.0000; stroke-opacity:1; 
stroke-linecap:round; stroke-linejoin:round;">
<circle cx="78.3000" cy="41.8000" r="0.9995" /> 
</g>
<g style="fill:#FFFFFF; fill-opacity:1.0000; 
stroke:#FFFFFF; stroke-width:0.0212; stroke-opacity:1; 
stroke-linecap:round; stroke-linejoin:round;">
</g>
<g style="fill:#FFFFFF; fill-opacity:1.0000; 
stroke:#FFFFFF; stroke-width:0.0000; stroke-opacity:1; 
stroke-linecap:round; stroke-linejoin:round;">
<circle cx="78.5000" cy="47.5000" r="0.5004" /> 
</g>
<g style="fill:#FFFFFF; fill-opacity:1.0000; 
stroke:#FFFFFF; stroke-width:0.0212; stroke-opacity:1; 
stroke-linecap:round; stroke-linejoin:round;">
</g>
<g style="fill:#FFFFFF; fill-opacity:1.0000; 
stroke:#FFFFFF; stroke-width:0.0000; stroke-opacity:1; 
stroke-linecap:round; stroke-linejoin:round;">
<circle cx="65.5300" cy="52.5000" r="0.4000" /> 
</g>
<g style="fill:#FFFFFF; fill-opacity:1.0000; 
stroke:#FFFFFF; stroke-width:0.0212; stroke-opacity:1; 
stroke-linecap:round; stroke-linejoin:round;">
</g>
<g style="fill:#FFFFFF; fill-opacity:1.0000; 
stroke:#FFFFFF; stroke-width:0.0000; stroke-opacity:1; 
stroke-linecap:round; stroke-linejoin:round;">
<circle cx="73.1500" cy="52.5000" r="0.4000" /> 
</g>
<g style="fill:#FFFFFF; fill-opacity:1.0000; 
stroke:#FFFFFF; stroke-width:0.0212; stroke-opacity:1; 
stroke-linecap:round; stroke-linejoin:round;">
</g>
<g style="fill:#FFFFFF; fill-opacity:1.0000; 
stroke:#FFFFFF; stroke-width:0.0000; stroke-opacity:1; 
stroke-linecap:round; stroke-linejoin:round;">
<circle cx="78.5000" cy="57.9100" r="0.4000" /> 
</g>
<g style="fill:#FFFFFF; fill-opacity:1.0000; 
stroke:#FFFFFF; stroke-width:0.0212; stroke-opacity:1; 
stroke-linecap:round; stroke-linejoin:round;">
</g>
<g style="fill:#FFFFFF; fill-opacity:1.0000; 
stroke:#FFFFFF; stroke-width:0.0000; stroke-opacity:1; 
stroke-linecap:round; stroke-linejoin:round;">
<circle cx="78.5000" cy="50.2900" r="0.4000" /> 
</g>
<g style="fill:#FFFFFF; fill-opacity:1.0000; 
stroke:#FFFFFF; stroke-width:0.0212; stroke-opacity:1; 
stroke-linecap:round; stroke-linejoin:round;">
</g>
<g style="fill:#FFFFFF; fill-opacity:1.0000; 
stroke:#FFFFFF; stroke-width:0.0000; stroke-opacity:1; 
stroke-linecap:round; stroke-linejoin:round;">
<circle cx="61.8000" cy="58.2000" r="0.9995" /> 
</g>
<g style="fill:#FFFFFF; fill-opacity:1.0000; 
stroke:#FFFFFF; stroke-width:0.0212; stroke-opacity:1; 
stroke-linecap:round; stroke-linejoin:round;">
</g>
<g style="fill:#000000; fill-opacity:1.0000; 
stroke:#000000; stroke-width:0.0212; stroke-opacity:1; 
stroke-linecap:round; stroke-linejoin:round;">
</g>
<g style="fill:#000000; fill-opacity:0.0; 
stroke:#000000; stroke-width:0.1000; stroke-opacity:1; 
stroke-linecap:round; stroke-linejoin:round;">
<path style="fill:#000000; fill-opacity:0.0; 
stroke:#000000; stroke-width:0.1000; stroke-opacity:1; 
stroke-linecap:round; stroke-linejoin:round;fill:none"
d="M 60.0000,40.0000
80.0000,40.0000
80.0000,60.0000
60.0000,60.0000
Z" /> 
<g >
</g>
<g >
</g>
<g >
</g>
<g >
</g>
<g >
</g>
<g >
</g>
<g >
</g>
<g >
</g>
<g >
</g>
<g >
</g>
<g >
</g>
<g >
</g>
</g> 
</svg>
